<svg width="1080" height="1080" viewBox="0 0 1080 1080" fill="none" xmlns="http://www.w3.org/2000/svg">
<g clip-path="url(#clip0_2148_1058)">
<rect width="1080" height="1080" fill="url(#paint0_radial_2148_1058)"/>
<g filter="url(#filter0_ddii_2148_1058)">
<path d="M298 426.532H471.158V864H594.842V426.532H768V305.425H594.842V125H471.158V305.425H298V426.532Z" fill="#FF527F"/>
</g>
<path d="M671.293 730.963C624.434 754.705 607.479 799.528 604.859 818.972C603.591 804.645 596.999 729.683 655.826 705.123C714.653 680.562 725.556 665.211 732.909 645C744.066 674.422 745.081 705.634 743.306 730.963C734.177 790.062 671.293 803.877 640.865 815.134C616.523 824.14 609.254 851.464 608.663 864L604.859 860.674C607.141 825.624 625.398 761.919 671.293 737.359C705.133 719.25 720.32 698.301 724.675 688.052C721.343 694.012 707.827 707.902 671.293 730.963Z" fill="#FF527F"/>
<path d="M723.401 844.922C690.969 828.733 659.116 837.792 647.244 844.345C654.678 837.744 693.59 803.231 731.394 825.714C769.198 848.197 782.2 847.918 796.443 843.672C784.691 861.966 767.777 875.377 752.985 884.821C716.422 904.093 682.917 874.939 664.167 862.715C649.166 852.935 631.009 860.156 623.806 864.99L624.09 861.513C644.488 848.348 687.359 832.237 719.85 847.555C743.806 858.849 761.677 858.639 769.156 856.833C764.478 857.44 751.214 855.67 723.401 844.922Z" fill="#FF527F"/>
<path d="M357.599 860.58C390.031 844.391 421.884 853.45 433.756 860.003C426.322 853.403 387.41 818.89 349.606 841.372C311.802 863.855 298.8 863.576 284.557 859.33C296.309 877.624 313.223 891.036 328.015 900.479C364.578 919.752 398.083 890.598 416.833 878.373C431.834 868.593 449.991 875.815 457.194 880.648L456.91 877.171C436.512 864.006 393.641 847.895 361.15 863.213C337.194 874.507 319.323 874.297 311.844 872.492C316.522 873.099 329.786 871.328 357.599 860.58Z" fill="#FF527F"/>
<path d="M392.226 730.963C439.42 754.705 456.496 799.528 459.135 818.972C460.412 804.645 467.051 729.683 407.804 705.123C348.557 680.562 337.576 665.211 330.17 645C318.933 674.422 317.912 705.634 319.699 730.963C328.893 790.062 392.226 803.877 422.871 815.134C447.387 824.14 454.708 851.464 455.304 864L459.135 860.674C456.836 825.624 438.449 761.919 392.226 737.359C358.145 719.25 342.85 698.301 338.463 688.052C341.819 694.012 355.431 707.902 392.226 730.963Z" fill="#FF527F"/>
<g opacity="0.3" clip-path="url(#clip1_2148_1058)">
<path d="M1096.49 1059.13L1096.49 1059.13C1079.03 1009.89 1060.19 954.23 1046.45 906.814C1039.58 883.106 1033.98 861.468 1030.46 843.733C1026.94 825.972 1025.53 812.201 1026.96 804.18C1027.67 800.199 1030.28 793.835 1034.61 785.461C1038.94 777.104 1044.96 766.792 1052.48 754.934C1067.51 731.22 1088.49 701.344 1113.72 668.594C1164.19 603.092 1231.67 526.116 1302.61 463.962L1302.29 463.595L1302.61 463.962C1384.86 391.842 1470.76 336.805 1546.82 288.071L1549.02 286.66C1549.02 286.66 1549.02 286.66 1549.02 286.659C1573.94 270.743 1597.48 255.622 1619.96 240.678L1619.96 240.677C1626.7 236.182 1634.94 234.549 1642.89 236.136C1650.83 237.723 1657.81 242.401 1662.31 249.14C1666.8 255.879 1668.44 264.128 1666.85 272.071C1665.26 280.015 1660.59 287.003 1653.85 291.498C1632.43 305.761 1610.41 319.835 1587.24 334.641C1585.43 335.801 1583.61 336.965 1581.78 338.135C1507.04 385.839 1422.16 440.126 1342.74 509.674L1342.74 509.675C1268.19 575.012 1205.26 649.88 1165.36 701.19L1165.36 701.191C1117.78 762.652 1092.85 803.782 1087.06 815.442L1087 815.562L1087.01 815.695C1087.41 822.211 1089.82 833.843 1093.69 848.977C1097.55 864.125 1102.88 882.82 1109.14 903.485C1121.65 944.815 1137.88 994.036 1153.53 1038.53L1153.53 1038.53C1154.87 1042.32 1155.46 1046.32 1155.25 1050.33C1155.04 1054.34 1154.05 1058.26 1152.32 1061.89C1150.6 1065.51 1148.17 1068.75 1145.19 1071.44C1142.21 1074.12 1138.73 1076.19 1134.95 1077.53L1134.94 1077.54C1131.83 1078.71 1128.55 1079.37 1125.22 1079.5C1118.92 1079.49 1112.77 1077.52 1107.63 1073.88C1102.48 1070.23 1098.59 1065.08 1096.49 1059.13Z" stroke="#FF527F"/>
<path d="M1115.56 1077.71L1115.56 1077.71C1111.78 1076.37 1108.3 1074.3 1105.32 1071.61C1102.34 1068.93 1099.92 1065.68 1098.19 1062.06C1096.46 1058.44 1095.47 1054.51 1095.26 1050.51C1095.05 1046.5 1095.64 1042.49 1096.98 1038.71C1112.76 994.236 1129.05 945.026 1141.55 903.695C1147.81 883.03 1153.12 864.332 1156.96 849.178C1160.79 834.039 1163.16 822.396 1163.5 815.868L1163.51 815.737L1163.45 815.619C1157.67 803.959 1132.73 762.829 1085.16 701.368C1045.47 650.057 982.502 575.189 907.774 509.851C828.614 440.125 743.87 386.015 669.134 338.311C643.958 322.219 620.379 307.058 597.111 291.676C590.529 287.122 585.999 280.165 584.495 272.304C582.991 264.44 584.635 256.3 589.072 249.637C593.51 242.974 600.386 238.32 608.221 236.678C616.054 235.037 624.219 236.537 630.957 240.857C653.218 255.599 676.161 270.298 700.535 285.913L701.975 286.836L701.977 286.837C778.579 335.609 865.389 391.144 948.429 464.138L948.43 464.139C1019.33 526.293 1086.78 603.147 1137.26 668.588C1162.49 701.308 1183.48 731.168 1198.52 754.905C1206.04 766.774 1212.07 777.107 1216.41 785.498C1220.75 793.904 1223.36 800.315 1224.08 804.357C1225.54 812.5 1224.13 826.333 1220.61 844.116C1217.1 861.874 1211.49 883.496 1204.61 907.174C1190.85 954.528 1171.99 1010.07 1154.55 1059.3C1152.42 1065.23 1148.51 1070.35 1143.36 1073.96C1138.21 1077.58 1132.06 1079.51 1125.77 1079.5C1122.29 1079.48 1118.84 1078.88 1115.56 1077.71Z" stroke="#FF527F"/>
<path d="M598.056 292.22L598.04 292.207L598.023 292.197C591.123 287.957 586.189 281.149 584.308 273.27C582.427 265.392 583.752 257.089 587.991 250.188C592.231 243.287 599.037 238.353 606.914 236.471C614.79 234.59 623.091 235.915 629.99 240.154C630.012 240.168 630.038 240.184 630.067 240.202C634.151 242.765 707.967 289.093 770.044 387.283C827.346 477.989 885.202 632.236 836.473 852.089L836.959 852.197L836.473 852.09C834.97 858.891 831.188 864.974 825.754 869.33C820.32 873.686 813.56 876.053 806.596 876.038C804.337 876.026 802.085 875.778 799.878 875.297C791.978 873.526 785.105 868.689 780.77 861.85C776.435 855.011 774.993 846.73 776.762 838.828L776.323 838.73L776.762 838.828C812.249 679.91 793.138 539.8 720.002 422.487C692.599 378.525 662.28 346.08 638.726 324.564C626.948 313.806 616.862 305.779 609.676 300.409C606.083 297.725 603.215 295.704 601.223 294.339C600.227 293.657 599.451 293.138 598.913 292.782C598.644 292.605 598.434 292.467 598.287 292.371L598.28 292.367C598.21 292.321 598.155 292.285 598.115 292.258C598.103 292.251 598.094 292.244 598.086 292.239C598.062 292.223 598.055 292.218 598.056 292.22Z" stroke="#FF527F"/>
<path d="M806.553 876.038C800.115 876.036 793.842 873.998 788.631 870.216L1094.82 28.3754L1095.32 28.4185C1095.32 28.4175 1095.32 28.4166 1095.32 28.4157C1096.02 20.3177 1099.91 12.8295 1106.13 7.59813C1112.35 2.3662 1120.4 -0.179812 1128.49 0.520176C1136.59 1.22016 1144.08 5.10881 1149.31 11.3307C1154.54 17.5516 1157.09 25.5955 1156.39 33.6934C1144.63 148.244 1124.18 261.737 1095.23 373.19C1031.49 618.248 940.389 785.348 824.565 870.149C819.338 873.974 813.029 876.036 806.553 876.038Z" stroke="#FF527F"/>
</g>
</g>
<defs>
<filter id="filter0_ddii_2148_1058" x="294" y="125" width="478" height="747" filterUnits="userSpaceOnUse" color-interpolation-filters="sRGB">
<feFlood flood-opacity="0" result="BackgroundImageFix"/>
<feColorMatrix in="SourceAlpha" type="matrix" values="0 0 0 0 0 0 0 0 0 0 0 0 0 0 0 0 0 0 127 0" result="hardAlpha"/>
<feOffset dy="4"/>
<feGaussianBlur stdDeviation="2"/>
<feComposite in2="hardAlpha" operator="out"/>
<feColorMatrix type="matrix" values="0 0 0 0 0 0 0 0 0 0 0 0 0 0 0 0 0 0 0.25 0"/>
<feBlend mode="normal" in2="BackgroundImageFix" result="effect1_dropShadow_2148_1058"/>
<feColorMatrix in="SourceAlpha" type="matrix" values="0 0 0 0 0 0 0 0 0 0 0 0 0 0 0 0 0 0 127 0" result="hardAlpha"/>
<feOffset dy="4"/>
<feGaussianBlur stdDeviation="2"/>
<feComposite in2="hardAlpha" operator="out"/>
<feColorMatrix type="matrix" values="0 0 0 0 0 0 0 0 0 0 0 0 0 0 0 0 0 0 0.25 0"/>
<feBlend mode="normal" in2="effect1_dropShadow_2148_1058" result="effect2_dropShadow_2148_1058"/>
<feBlend mode="normal" in="SourceGraphic" in2="effect2_dropShadow_2148_1058" result="shape"/>
<feColorMatrix in="SourceAlpha" type="matrix" values="0 0 0 0 0 0 0 0 0 0 0 0 0 0 0 0 0 0 127 0" result="hardAlpha"/>
<feOffset dy="4"/>
<feGaussianBlur stdDeviation="2"/>
<feComposite in2="hardAlpha" operator="arithmetic" k2="-1" k3="1"/>
<feColorMatrix type="matrix" values="0 0 0 0 0 0 0 0 0 0 0 0 0 0 0 0 0 0 0.25 0"/>
<feBlend mode="normal" in2="shape" result="effect3_innerShadow_2148_1058"/>
<feColorMatrix in="SourceAlpha" type="matrix" values="0 0 0 0 0 0 0 0 0 0 0 0 0 0 0 0 0 0 127 0" result="hardAlpha"/>
<feOffset dy="4"/>
<feGaussianBlur stdDeviation="2"/>
<feComposite in2="hardAlpha" operator="arithmetic" k2="-1" k3="1"/>
<feColorMatrix type="matrix" values="0 0 0 0 0 0 0 0 0 0 0 0 0 0 0 0 0 0 0.25 0"/>
<feBlend mode="normal" in2="effect3_innerShadow_2148_1058" result="effect4_innerShadow_2148_1058"/>
</filter>
<radialGradient id="paint0_radial_2148_1058" cx="0" cy="0" r="1" gradientUnits="userSpaceOnUse" gradientTransform="translate(540 540) rotate(90) scale(790)">
<stop offset="0.367718" stop-color="white"/>
<stop offset="1" stop-color="#F5BDCC"/>
</radialGradient>
<clipPath id="clip0_2148_1058">
<rect width="1080" height="1080" fill="white"/>
</clipPath>
<clipPath id="clip1_2148_1058">
<rect width="1085" height="1080" fill="white" transform="translate(583)"/>
</clipPath>
</defs>
</svg>
